# xmcd CD database file
#
# Track frame offsets:
#	150
#	14009
#	25649
#	41621
#	57996
#	71530
#	83991
#	96330
#	109535
#	127200
#
# Disc length: 1864 seconds
#
# Revision: 0
# Processed by: cddbd v1.4PL0 Copyright (c) Steve Scherf et al.
# Submitted via: CdAid 2001.05.15.01
#
DISCID=8507460a
DTITLE=Merle Haggard - Best Of The 70s and 80s
DYEAR=1900
DGENRE=
TTITLE0=Always Wanted You
TTITLE1=From Graceland To The Promised Land
TTITLE2=It's All In The Movies
TTITLE3=Ramblin' Fever
TTITLE4=Cherokee Maiden
TTITLE5=I'm Always On A Mountain When I Fall
TTITLE6=The Roots Of My Raising
TTITLE7=The Way I Am
TTITLE8=I Think I'll Just Stay Here And Drink
TTITLE9=It's Been A Great Afternoon
EXTD=
EXTT0=
EXTT1=
EXTT2=
EXTT3=
EXTT4=
EXTT5=
EXTT6=
EXTT7=
EXTT8=
EXTT9=
PLAYORDER=
